# xmcd
#
# Track frame offsets:
#  150
#  3455
#  20781
#  33131
#  54101
#  74367
#  102658
#  128990
#  154889
#  179019
#  195116
#  229294
#
# Disc length: 3451 seconds
#
# Revision: 2
# Processed by: cddbd v1.5.1PL2 Copyright (c) Steve Scherf et al.
# Submitted via: Collectorz.com_Music_Collector 6.11
#
DISCID=9e0d790c
DTITLE=Tom Russell and Andrew Hardin - Sweden - 10/09/2005 [CD1)
DYEAR=2005
DGENRE=Country
TTITLE0=Preshow Sounds
TTITLE1=St Olav's Gate
TTITLE2=Stealing Electricity
TTITLE3=Ash Wednesday
TTITLE4=Next Thing Smoking
TTITLE5=Down The Rio Grande
TTITLE6=Out In California
TTITLE7=The Ballad Of Ira Hayes
TTITLE8=Tonight We Ride
TTITLE9=Grapewine
TTITLE10=Tulare Dust > Labor Camps > Mama Tried > Truck Drivin' Man > Tig
TTITLE11=Gallo Del Cielo
EXTD=
EXTT0=
EXTT1=
EXTT2=
EXTT3=
EXTT4=
EXTT5=
EXTT6=
EXTT7=
EXTT8=
EXTT9=
EXTT10=
EXTT11=
PLAYORDER=
